<svg width="51" height="51" viewBox="0 0 51 51" fill="none" xmlns="http://www.w3.org/2000/svg">
<path fill-rule="evenodd" clip-rule="evenodd" d="M0.626465 5.67334H8.43896V0.98584H0.626465V5.67334Z" fill="#50E6FF"/>
<path fill-rule="evenodd" clip-rule="evenodd" d="M2.18896 50.9858H6.87646V4.89209H2.18896V50.9858Z" fill="#50E6FF"/>
<path fill-rule="evenodd" clip-rule="evenodd" d="M14.689 50.9858H6.87646V13.4858H28.7515V50.9858H20.939V44.7358H14.689V50.9858Z" fill="#0078D4"/>
<path fill-rule="evenodd" clip-rule="evenodd" d="M35.0015 50.9858H28.7515V21.2983H50.6265V50.9858H41.2515V44.7358H35.0015V50.9858Z" fill="#0078D4"/>
<path fill-rule="evenodd" clip-rule="evenodd" d="M11.564 24.4233H16.2515V19.7358H11.564V24.4233Z" fill="#50E6FF"/>
<path fill-rule="evenodd" clip-rule="evenodd" d="M19.3765 24.4233H24.064V19.7358H19.3765V24.4233Z" fill="#50E6FF"/>
<path fill-rule="evenodd" clip-rule="evenodd" d="M11.564 32.2358H16.2515V27.5483H11.564V32.2358Z" fill="#50E6FF"/>
<path fill-rule="evenodd" clip-rule="evenodd" d="M19.3765 32.2358H24.064V27.5483H19.3765V32.2358Z" fill="#50E6FF"/>
<path fill-rule="evenodd" clip-rule="evenodd" d="M11.564 40.0483H16.2515V35.3608H11.564V40.0483Z" fill="#50E6FF"/>
<path fill-rule="evenodd" clip-rule="evenodd" d="M19.3765 40.0483H24.064V35.3608H19.3765V40.0483Z" fill="#50E6FF"/>
<path fill-rule="evenodd" clip-rule="evenodd" d="M31.8765 32.2358H36.564V27.5483H31.8765V32.2358Z" fill="#50E6FF"/>
<path fill-rule="evenodd" clip-rule="evenodd" d="M39.689 32.2358H44.3765V27.5483H39.689V32.2358Z" fill="#50E6FF"/>
<path fill-rule="evenodd" clip-rule="evenodd" d="M31.8765 40.0483H36.564V35.3608H31.8765V40.0483Z" fill="#50E6FF"/>
<path fill-rule="evenodd" clip-rule="evenodd" d="M39.689 40.0483H44.3765V35.3608H39.689V40.0483Z" fill="#50E6FF"/>
</svg>
